<?xml version="1.0" encoding="UTF-8" standalone="no"?>
<!DOCTYPE svg PUBLIC "-//W3C//DTD SVG 1.1//EN"
 "http://www.w3.org/Graphics/SVG/1.1/DTD/svg11.dtd">
<!-- Generated by graphviz version 2.40.1 (20161225.0304)
 -->
<!-- Title: %3 Pages: 1 -->
<svg width="567pt" height="954pt"
 viewBox="0.00 0.00 567.00 954.00" xmlns="http://www.w3.org/2000/svg" xmlns:xlink="http://www.w3.org/1999/xlink">
<g id="graph0" class="graph" transform="scale(1 1) rotate(0) translate(4 950)">
<title>%3</title>
<polygon fill="#ffffff" stroke="transparent" points="-4,4 -4,-950 563,-950 563,4 -4,4"/>
<!-- n18083068 -->
<g id="node1" class="node">
<title>n18083068</title>
<polygon fill="none" stroke="#000000" points="210.5,-899.5 210.5,-945.5 306.5,-945.5 306.5,-899.5 210.5,-899.5"/>
<text text-anchor="middle" x="258.5" y="-930.3" font-family="Times New Roman" font-size="14.00" fill="#000000">ExtDecl&#39;ion</text>
<polyline fill="none" stroke="#000000" points="210.5,-922.5 306.5,-922.5 "/>
<text text-anchor="middle" x="234.5" y="-907.3" font-family="Times New Roman" font-size="14.00" fill="#000000"> </text>
<polyline fill="none" stroke="#000000" points="258.5,-899.5 258.5,-922.5 "/>
<text text-anchor="middle" x="282.5" y="-907.3" font-family="Times New Roman" font-size="14.00" fill="#000000"> </text>
</g>
<!-- n18117980 -->
<g id="node2" class="node">
<title>n18117980</title>
<polygon fill="none" stroke="#000000" points="203,-816.5 203,-862.5 266,-862.5 266,-816.5 203,-816.5"/>
<text text-anchor="middle" x="234.5" y="-847.3" font-family="Times New Roman" font-size="14.00" fill="#000000">FnDef</text>
<polyline fill="none" stroke="#000000" points="203,-839.5 266,-839.5 "/>
<text text-anchor="middle" x="213.5" y="-824.3" font-family="Times New Roman" font-size="14.00" fill="#000000"> </text>
<polyline fill="none" stroke="#000000" points="224,-816.5 224,-839.5 "/>
<text text-anchor="middle" x="234.5" y="-824.3" font-family="Times New Roman" font-size="14.00" fill="#000000"> </text>
<polyline fill="none" stroke="#000000" points="245,-816.5 245,-839.5 "/>
<text text-anchor="middle" x="255.5" y="-824.3" font-family="Times New Roman" font-size="14.00" fill="#000000"> </text>
</g>
<!-- n18083068&#45;&gt;n18117980 -->
<g id="edge1" class="edge">
<title>n18083068:m0&#45;&gt;n18117980</title>
<path fill="none" stroke="#000000" d="M234.5,-899.5C234.5,-890.8354 234.5,-881.4671 234.5,-872.767"/>
<polygon fill="#000000" stroke="#000000" points="238.0001,-872.5785 234.5,-862.5785 231.0001,-872.5785 238.0001,-872.5785"/>
</g>
<!-- n18109052 -->
<g id="node3" class="node">
<title>n18109052</title>
<polygon fill="none" stroke="#000000" points="14,-733.5 14,-779.5 183,-779.5 183,-733.5 14,-733.5"/>
<text text-anchor="middle" x="98.5" y="-764.3" font-family="Times New Roman" font-size="14.00" fill="#000000">DeclarationSpecifiers</text>
<polyline fill="none" stroke="#000000" points="14,-756.5 183,-756.5 "/>
<text text-anchor="middle" x="98.5" y="-741.3" font-family="Times New Roman" font-size="14.00" fill="#000000"> </text>
</g>
<!-- n18117980&#45;&gt;n18109052 -->
<g id="edge2" class="edge">
<title>n18117980:m0&#45;&gt;n18109052</title>
<path fill="none" stroke="#000000" d="M202.5,-827.5C171.8711,-827.5 143.6182,-806.235 124.3142,-786.9806"/>
<polygon fill="#000000" stroke="#000000" points="126.819,-784.5358 117.3677,-779.7481 121.7705,-789.3848 126.819,-784.5358"/>
</g>
<!-- n18118844 -->
<g id="node4" class="node">
<title>n18118844</title>
<polygon fill="none" stroke="#000000" points="201,-733.5 201,-779.5 268,-779.5 268,-733.5 201,-733.5"/>
<text text-anchor="middle" x="234.5" y="-764.3" font-family="Times New Roman" font-size="14.00" fill="#000000">Decl&#39;or</text>
<polyline fill="none" stroke="#000000" points="201,-756.5 268,-756.5 "/>
<text text-anchor="middle" x="217.5" y="-741.3" font-family="Times New Roman" font-size="14.00" fill="#000000"> </text>
<polyline fill="none" stroke="#000000" points="234,-733.5 234,-756.5 "/>
<text text-anchor="middle" x="251" y="-741.3" font-family="Times New Roman" font-size="14.00" fill="#000000"> </text>
</g>
<!-- n18117980&#45;&gt;n18118844 -->
<g id="edge3" class="edge">
<title>n18117980:m1&#45;&gt;n18118844</title>
<path fill="none" stroke="#000000" d="M234.5,-816.5C234.5,-807.8354 234.5,-798.4671 234.5,-789.767"/>
<polygon fill="#000000" stroke="#000000" points="238.0001,-789.5785 234.5,-779.5785 231.0001,-789.5785 238.0001,-789.5785"/>
</g>
<!-- n18121116 -->
<g id="node5" class="node">
<title>n18121116</title>
<polygon fill="none" stroke="#000000" points="296.5,-733.5 296.5,-779.5 388.5,-779.5 388.5,-733.5 296.5,-733.5"/>
<text text-anchor="middle" x="342.5" y="-764.3" font-family="Times New Roman" font-size="14.00" fill="#000000">CompStmt</text>
<polyline fill="none" stroke="#000000" points="296.5,-756.5 388.5,-756.5 "/>
<text text-anchor="middle" x="319.5" y="-741.3" font-family="Times New Roman" font-size="14.00" fill="#000000"> </text>
<polyline fill="none" stroke="#000000" points="342.5,-733.5 342.5,-756.5 "/>
<text text-anchor="middle" x="365.5" y="-741.3" font-family="Times New Roman" font-size="14.00" fill="#000000"> </text>
</g>
<!-- n18117980&#45;&gt;n18121116 -->
<g id="edge4" class="edge">
<title>n18117980:m2&#45;&gt;n18121116</title>
<path fill="none" stroke="#000000" d="M266.5,-827.5C291.2401,-827.5 311.2683,-807.1615 324.5414,-788.2556"/>
<polygon fill="#000000" stroke="#000000" points="327.5692,-790.022 330.1572,-779.7481 321.7271,-786.1656 327.5692,-790.022"/>
</g>
<!-- n18118012 -->
<g id="node6" class="node">
<title>n18118012</title>
<polygon fill="none" stroke="#000000" points="57,-650.5 57,-696.5 140,-696.5 140,-650.5 57,-650.5"/>
<text text-anchor="middle" x="98.5" y="-681.3" font-family="Times New Roman" font-size="14.00" fill="#000000">ArithType</text>
<polyline fill="none" stroke="#000000" points="57,-673.5 140,-673.5 "/>
<text text-anchor="middle" x="98.5" y="-658.3" font-family="Times New Roman" font-size="14.00" fill="#000000">int</text>
</g>
<!-- n18109052&#45;&gt;n18118012 -->
<g id="edge5" class="edge">
<title>n18109052:m0&#45;&gt;n18118012</title>
<path fill="none" stroke="#000000" d="M98.5,-733.5C98.5,-724.8354 98.5,-715.4671 98.5,-706.767"/>
<polygon fill="#000000" stroke="#000000" points="102.0001,-706.5785 98.5,-696.5785 95.0001,-706.5785 102.0001,-706.5785"/>
</g>
<!-- n18120188 -->
<g id="node7" class="node">
<title>n18120188</title>
<polygon fill="none" stroke="#000000" points="202.5,-650.5 202.5,-696.5 290.5,-696.5 290.5,-650.5 202.5,-650.5"/>
<text text-anchor="middle" x="246.5" y="-681.3" font-family="Times New Roman" font-size="14.00" fill="#000000">DirDecl&#39;or</text>
<polyline fill="none" stroke="#000000" points="202.5,-673.5 290.5,-673.5 "/>
<text text-anchor="middle" x="246.5" y="-658.3" font-family="Times New Roman" font-size="14.00" fill="#000000"> </text>
</g>
<!-- n18118844&#45;&gt;n18120188 -->
<g id="edge6" class="edge">
<title>n18118844:m1&#45;&gt;n18120188</title>
<path fill="none" stroke="#000000" d="M251.5,-733.5C251.5,-724.8054 250.9721,-715.4265 250.2594,-706.7259"/>
<polygon fill="#000000" stroke="#000000" points="253.7239,-706.178 249.3215,-696.5411 246.7534,-706.82 253.7239,-706.178"/>
</g>
<!-- n18121148 -->
<g id="node23" class="node">
<title>n18121148</title>
<polygon fill="none" stroke="#000000" points="339.5,-650.5 339.5,-696.5 393.5,-696.5 393.5,-650.5 339.5,-650.5"/>
<text text-anchor="middle" x="366.5" y="-681.3" font-family="Times New Roman" font-size="14.00" fill="#000000">Stmt</text>
<polyline fill="none" stroke="#000000" points="339.5,-673.5 393.5,-673.5 "/>
<text text-anchor="middle" x="353" y="-658.3" font-family="Times New Roman" font-size="14.00" fill="#000000"> </text>
<polyline fill="none" stroke="#000000" points="366.5,-650.5 366.5,-673.5 "/>
<text text-anchor="middle" x="380" y="-658.3" font-family="Times New Roman" font-size="14.00" fill="#000000"> </text>
</g>
<!-- n18121116&#45;&gt;n18121148 -->
<g id="edge22" class="edge">
<title>n18121116:m1&#45;&gt;n18121148</title>
<path fill="none" stroke="#000000" d="M365.5,-733.5C365.5,-724.8342 365.6056,-715.4655 365.7481,-706.7654"/>
<polygon fill="#000000" stroke="#000000" points="369.2509,-706.6398 365.9357,-696.577 362.2521,-706.5108 369.2509,-706.6398"/>
</g>
<!-- n18120220 -->
<g id="node8" class="node">
<title>n18120220</title>
<polygon fill="none" stroke="#000000" points="201.5,-567.5 201.5,-613.5 285.5,-613.5 285.5,-567.5 201.5,-567.5"/>
<text text-anchor="middle" x="243.5" y="-598.3" font-family="Times New Roman" font-size="14.00" fill="#000000">FnDecl&#39;or</text>
<polyline fill="none" stroke="#000000" points="201.5,-590.5 285.5,-590.5 "/>
<text text-anchor="middle" x="222.5" y="-575.3" font-family="Times New Roman" font-size="14.00" fill="#000000"> </text>
<polyline fill="none" stroke="#000000" points="243.5,-567.5 243.5,-590.5 "/>
<text text-anchor="middle" x="264.5" y="-575.3" font-family="Times New Roman" font-size="14.00" fill="#000000"> </text>
</g>
<!-- n18120188&#45;&gt;n18120220 -->
<g id="edge7" class="edge">
<title>n18120188:m0&#45;&gt;n18120220</title>
<path fill="none" stroke="#000000" d="M246.5,-650.5C246.5,-641.8246 246.1833,-632.4525 245.7557,-623.7522"/>
<polygon fill="#000000" stroke="#000000" points="249.2392,-623.3567 245.1929,-613.565 242.2499,-623.7429 249.2392,-623.3567"/>
</g>
<!-- n18118876 -->
<g id="node9" class="node">
<title>n18118876</title>
<polygon fill="none" stroke="#000000" points="98.5,-461.5 98.5,-530.5 186.5,-530.5 186.5,-461.5 98.5,-461.5"/>
<text text-anchor="middle" x="142.5" y="-515.3" font-family="Times New Roman" font-size="14.00" fill="#000000">DirDecl&#39;or</text>
<polyline fill="none" stroke="#000000" points="98.5,-507.5 186.5,-507.5 "/>
<text text-anchor="middle" x="142.5" y="-492.3" font-family="Times New Roman" font-size="14.00" fill="#000000">main</text>
<polyline fill="none" stroke="#000000" points="98.5,-484.5 186.5,-484.5 "/>
<text text-anchor="middle" x="142.5" y="-469.3" font-family="Times New Roman" font-size="14.00" fill="#000000"> </text>
</g>
<!-- n18120220&#45;&gt;n18118876 -->
<g id="edge8" class="edge">
<title>n18120220:m0&#45;&gt;n18118876</title>
<path fill="none" stroke="#000000" d="M201.5,-578.5C179.9142,-578.5 165.4726,-559.5829 156.2827,-539.8656"/>
<polygon fill="#000000" stroke="#000000" points="159.4383,-538.3423 152.3041,-530.5094 152.9965,-541.0816 159.4383,-538.3423"/>
</g>
<!-- n18120252 -->
<g id="node10" class="node">
<title>n18120252</title>
<polygon fill="none" stroke="#000000" points="205,-473 205,-519 324,-519 324,-473 205,-473"/>
<text text-anchor="middle" x="264.5" y="-503.8" font-family="Times New Roman" font-size="14.00" fill="#000000">ParamDecl&#39;ion</text>
<polyline fill="none" stroke="#000000" points="205,-496 324,-496 "/>
<text text-anchor="middle" x="224.5" y="-480.8" font-family="Times New Roman" font-size="14.00" fill="#000000"> </text>
<polyline fill="none" stroke="#000000" points="244,-473 244,-496 "/>
<text text-anchor="middle" x="264" y="-480.8" font-family="Times New Roman" font-size="14.00" fill="#000000"> </text>
<polyline fill="none" stroke="#000000" points="284,-473 284,-496 "/>
<text text-anchor="middle" x="304" y="-480.8" font-family="Times New Roman" font-size="14.00" fill="#000000"> </text>
</g>
<!-- n18120220&#45;&gt;n18120252 -->
<g id="edge9" class="edge">
<title>n18120220:m1&#45;&gt;n18120252</title>
<path fill="none" stroke="#000000" d="M264.5,-567.5C264.5,-555.0189 264.5,-541.3123 264.5,-529.2682"/>
<polygon fill="#000000" stroke="#000000" points="268.0001,-529.1845 264.5,-519.1846 261.0001,-529.1846 268.0001,-529.1845"/>
</g>
<!-- n18118044 -->
<g id="node11" class="node">
<title>n18118044</title>
<polygon fill="none" stroke="#000000" points="0,-378.5 0,-424.5 169,-424.5 169,-378.5 0,-378.5"/>
<text text-anchor="middle" x="84.5" y="-409.3" font-family="Times New Roman" font-size="14.00" fill="#000000">DeclarationSpecifiers</text>
<polyline fill="none" stroke="#000000" points="0,-401.5 169,-401.5 "/>
<text text-anchor="middle" x="84.5" y="-386.3" font-family="Times New Roman" font-size="14.00" fill="#000000"> </text>
</g>
<!-- n18120252&#45;&gt;n18118044 -->
<g id="edge10" class="edge">
<title>n18120252:m0&#45;&gt;n18118044</title>
<path fill="none" stroke="#000000" d="M204.5,-484C193.523,-484 202.7863,-469.21 195.5,-461 184.1563,-448.2182 169.3923,-437.695 154.3541,-429.2426"/>
<polygon fill="#000000" stroke="#000000" points="155.9607,-426.1328 145.4918,-424.5039 152.6599,-432.3058 155.9607,-426.1328"/>
</g>
<!-- n18120524 -->
<g id="node12" class="node">
<title>n18120524</title>
<polygon fill="none" stroke="#000000" points="198,-378.5 198,-424.5 265,-424.5 265,-378.5 198,-378.5"/>
<text text-anchor="middle" x="231.5" y="-409.3" font-family="Times New Roman" font-size="14.00" fill="#000000">Decl&#39;or</text>
<polyline fill="none" stroke="#000000" points="198,-401.5 265,-401.5 "/>
<text text-anchor="middle" x="214.5" y="-386.3" font-family="Times New Roman" font-size="14.00" fill="#000000"> </text>
<polyline fill="none" stroke="#000000" points="231,-378.5 231,-401.5 "/>
<text text-anchor="middle" x="248" y="-386.3" font-family="Times New Roman" font-size="14.00" fill="#000000"> </text>
</g>
<!-- n18120252&#45;&gt;n18120524 -->
<g id="edge11" class="edge">
<title>n18120252:m1&#45;&gt;n18120524</title>
<path fill="none" stroke="#000000" d="M263.5,-473C263.5,-459.3716 258.5966,-445.4568 252.6286,-433.568"/>
<polygon fill="#000000" stroke="#000000" points="255.5496,-431.614 247.6875,-424.512 249.4047,-434.9668 255.5496,-431.614"/>
</g>
<!-- n18120588 -->
<g id="node13" class="node">
<title>n18120588</title>
<polygon fill="none" stroke="#000000" points="288,-378.5 288,-424.5 407,-424.5 407,-378.5 288,-378.5"/>
<text text-anchor="middle" x="347.5" y="-409.3" font-family="Times New Roman" font-size="14.00" fill="#000000">ParamDecl&#39;ion</text>
<polyline fill="none" stroke="#000000" points="288,-401.5 407,-401.5 "/>
<text text-anchor="middle" x="307.5" y="-386.3" font-family="Times New Roman" font-size="14.00" fill="#000000"> </text>
<polyline fill="none" stroke="#000000" points="327,-378.5 327,-401.5 "/>
<text text-anchor="middle" x="347" y="-386.3" font-family="Times New Roman" font-size="14.00" fill="#000000"> </text>
<polyline fill="none" stroke="#000000" points="367,-378.5 367,-401.5 "/>
<text text-anchor="middle" x="387" y="-386.3" font-family="Times New Roman" font-size="14.00" fill="#000000"> </text>
</g>
<!-- n18120252&#45;&gt;n18120588 -->
<g id="edge12" class="edge">
<title>n18120252:m2&#45;&gt;n18120588</title>
<path fill="none" stroke="#000000" d="M304.5,-473C304.5,-458.5466 311.0326,-444.4979 319.0054,-432.7341"/>
<polygon fill="#000000" stroke="#000000" points="321.884,-434.7276 324.9925,-424.599 316.2462,-430.5784 321.884,-434.7276"/>
</g>
<!-- n18120492 -->
<g id="node14" class="node">
<title>n18120492</title>
<polygon fill="none" stroke="#000000" points="22,-284 22,-330 105,-330 105,-284 22,-284"/>
<text text-anchor="middle" x="63.5" y="-314.8" font-family="Times New Roman" font-size="14.00" fill="#000000">ArithType</text>
<polyline fill="none" stroke="#000000" points="22,-307 105,-307 "/>
<text text-anchor="middle" x="63.5" y="-291.8" font-family="Times New Roman" font-size="14.00" fill="#000000">int</text>
</g>
<!-- n18118044&#45;&gt;n18120492 -->
<g id="edge13" class="edge">
<title>n18118044:m0&#45;&gt;n18120492</title>
<path fill="none" stroke="#000000" d="M84.5,-378.5C84.5,-365.4614 81.2454,-351.6076 77.2987,-339.6012"/>
<polygon fill="#000000" stroke="#000000" points="80.5333,-338.2516 73.877,-330.0088 73.9403,-340.6035 80.5333,-338.2516"/>
</g>
<!-- n18120556 -->
<g id="node15" class="node">
<title>n18120556</title>
<polygon fill="none" stroke="#000000" points="123.5,-272.5 123.5,-341.5 211.5,-341.5 211.5,-272.5 123.5,-272.5"/>
<text text-anchor="middle" x="167.5" y="-326.3" font-family="Times New Roman" font-size="14.00" fill="#000000">DirDecl&#39;or</text>
<polyline fill="none" stroke="#000000" points="123.5,-318.5 211.5,-318.5 "/>
<text text-anchor="middle" x="167.5" y="-303.3" font-family="Times New Roman" font-size="14.00" fill="#000000">argc</text>
<polyline fill="none" stroke="#000000" points="123.5,-295.5 211.5,-295.5 "/>
<text text-anchor="middle" x="167.5" y="-280.3" font-family="Times New Roman" font-size="14.00" fill="#000000"> </text>
</g>
<!-- n18120524&#45;&gt;n18120556 -->
<g id="edge14" class="edge">
<title>n18120524:m1&#45;&gt;n18120556</title>
<path fill="none" stroke="#000000" d="M248.5,-378.5C248.5,-368.9161 235.5937,-355.5909 220.0848,-343.0382"/>
<polygon fill="#000000" stroke="#000000" points="221.8292,-339.96 211.7919,-336.5683 217.5234,-345.479 221.8292,-339.96"/>
</g>
<!-- n18118108 -->
<g id="node16" class="node">
<title>n18118108</title>
<polygon fill="none" stroke="#000000" points="229,-284 229,-330 398,-330 398,-284 229,-284"/>
<text text-anchor="middle" x="313.5" y="-314.8" font-family="Times New Roman" font-size="14.00" fill="#000000">DeclarationSpecifiers</text>
<polyline fill="none" stroke="#000000" points="229,-307 398,-307 "/>
<text text-anchor="middle" x="313.5" y="-291.8" font-family="Times New Roman" font-size="14.00" fill="#000000"> </text>
</g>
<!-- n18120588&#45;&gt;n18118108 -->
<g id="edge15" class="edge">
<title>n18120588:m0&#45;&gt;n18118108</title>
<path fill="none" stroke="#000000" d="M307.5,-378.5C307.5,-365.9751 308.4256,-352.259 309.5497,-340.2197"/>
<polygon fill="#000000" stroke="#000000" points="313.0446,-340.4452 310.5703,-330.1434 306.0803,-339.7397 313.0446,-340.4452"/>
</g>
<!-- n18120716 -->
<g id="node17" class="node">
<title>n18120716</title>
<polygon fill="none" stroke="#000000" points="416,-284 416,-330 483,-330 483,-284 416,-284"/>
<text text-anchor="middle" x="449.5" y="-314.8" font-family="Times New Roman" font-size="14.00" fill="#000000">Decl&#39;or</text>
<polyline fill="none" stroke="#000000" points="416,-307 483,-307 "/>
<text text-anchor="middle" x="432.5" y="-291.8" font-family="Times New Roman" font-size="14.00" fill="#000000"> </text>
<polyline fill="none" stroke="#000000" points="449,-284 449,-307 "/>
<text text-anchor="middle" x="466" y="-291.8" font-family="Times New Roman" font-size="14.00" fill="#000000"> </text>
</g>
<!-- n18120588&#45;&gt;n18120716 -->
<g id="edge16" class="edge">
<title>n18120588:m1&#45;&gt;n18120716</title>
<path fill="none" stroke="#000000" d="M346.5,-378.5C346.5,-347.2867 381.0032,-360.0052 406.5,-342 408.9325,-340.2822 411.4051,-338.4684 413.8726,-336.607"/>
<polygon fill="#000000" stroke="#000000" points="416.4208,-339.0598 422.1762,-330.1646 412.1298,-333.5292 416.4208,-339.0598"/>
</g>
<!-- n18120684 -->
<g id="node18" class="node">
<title>n18120684</title>
<polygon fill="none" stroke="#000000" points="272,-189.5 272,-235.5 355,-235.5 355,-189.5 272,-189.5"/>
<text text-anchor="middle" x="313.5" y="-220.3" font-family="Times New Roman" font-size="14.00" fill="#000000">ArithType</text>
<polyline fill="none" stroke="#000000" points="272,-212.5 355,-212.5 "/>
<text text-anchor="middle" x="313.5" y="-197.3" font-family="Times New Roman" font-size="14.00" fill="#000000">char</text>
</g>
<!-- n18118108&#45;&gt;n18120684 -->
<g id="edge17" class="edge">
<title>n18118108:m0&#45;&gt;n18120684</title>
<path fill="none" stroke="#000000" d="M313.5,-284C313.5,-271.5189 313.5,-257.8123 313.5,-245.7682"/>
<polygon fill="#000000" stroke="#000000" points="317.0001,-245.6845 313.5,-235.6846 310.0001,-245.6846 317.0001,-245.6845"/>
</g>
<!-- n18058156 -->
<g id="node19" class="node">
<title>n18058156</title>
<polygon fill="none" stroke="#000000" points="386.5,-189.5 386.5,-235.5 452.5,-235.5 452.5,-189.5 386.5,-189.5"/>
<text text-anchor="middle" x="419.5" y="-220.3" font-family="Times New Roman" font-size="14.00" fill="#000000">Pointer</text>
<polyline fill="none" stroke="#000000" points="386.5,-212.5 452.5,-212.5 "/>
<text text-anchor="middle" x="419.5" y="-197.3" font-family="Times New Roman" font-size="14.00" fill="#000000"> </text>
</g>
<!-- n18120716&#45;&gt;n18058156 -->
<g id="edge18" class="edge">
<title>n18120716:m0&#45;&gt;n18058156</title>
<path fill="none" stroke="#000000" d="M432.5,-284C432.5,-271.4119 430.5253,-257.7753 428.1152,-245.8196"/>
<polygon fill="#000000" stroke="#000000" points="431.4824,-244.834 425.9238,-235.8144 424.6445,-246.3317 431.4824,-244.834"/>
</g>
<!-- n18121052 -->
<g id="node20" class="node">
<title>n18121052</title>
<polygon fill="none" stroke="#000000" points="470.5,-189.5 470.5,-235.5 558.5,-235.5 558.5,-189.5 470.5,-189.5"/>
<text text-anchor="middle" x="514.5" y="-220.3" font-family="Times New Roman" font-size="14.00" fill="#000000">DirDecl&#39;or</text>
<polyline fill="none" stroke="#000000" points="470.5,-212.5 558.5,-212.5 "/>
<text text-anchor="middle" x="514.5" y="-197.3" font-family="Times New Roman" font-size="14.00" fill="#000000"> </text>
</g>
<!-- n18120716&#45;&gt;n18121052 -->
<g id="edge19" class="edge">
<title>n18120716:m1&#45;&gt;n18121052</title>
<path fill="none" stroke="#000000" d="M466.5,-284C466.5,-269.3223 473.5589,-255.3872 482.2627,-243.7836"/>
<polygon fill="#000000" stroke="#000000" points="485.1948,-245.7267 488.8137,-235.7691 479.775,-241.2966 485.1948,-245.7267"/>
</g>
<!-- n18121084 -->
<g id="node21" class="node">
<title>n18121084</title>
<polygon fill="none" stroke="#000000" points="470,-106.5 470,-152.5 559,-152.5 559,-106.5 470,-106.5"/>
<text text-anchor="middle" x="514.5" y="-137.3" font-family="Times New Roman" font-size="14.00" fill="#000000">ArrDecl&#39;or</text>
<polyline fill="none" stroke="#000000" points="470,-129.5 559,-129.5 "/>
<text text-anchor="middle" x="492" y="-114.3" font-family="Times New Roman" font-size="14.00" fill="#000000"> </text>
<polyline fill="none" stroke="#000000" points="514,-106.5 514,-129.5 "/>
<text text-anchor="middle" x="536.5" y="-114.3" font-family="Times New Roman" font-size="14.00" fill="#000000"> </text>
</g>
<!-- n18121052&#45;&gt;n18121084 -->
<g id="edge20" class="edge">
<title>n18121052:m0&#45;&gt;n18121084</title>
<path fill="none" stroke="#000000" d="M514.5,-189.5C514.5,-180.8354 514.5,-171.4671 514.5,-162.767"/>
<polygon fill="#000000" stroke="#000000" points="518.0001,-162.5785 514.5,-152.5785 511.0001,-162.5785 518.0001,-162.5785"/>
</g>
<!-- n18121020 -->
<g id="node22" class="node">
<title>n18121020</title>
<polygon fill="none" stroke="#000000" points="447.5,-.5 447.5,-69.5 535.5,-69.5 535.5,-.5 447.5,-.5"/>
<text text-anchor="middle" x="491.5" y="-54.3" font-family="Times New Roman" font-size="14.00" fill="#000000">DirDecl&#39;or</text>
<polyline fill="none" stroke="#000000" points="447.5,-46.5 535.5,-46.5 "/>
<text text-anchor="middle" x="491.5" y="-31.3" font-family="Times New Roman" font-size="14.00" fill="#000000">argv</text>
<polyline fill="none" stroke="#000000" points="447.5,-23.5 535.5,-23.5 "/>
<text text-anchor="middle" x="491.5" y="-8.3" font-family="Times New Roman" font-size="14.00" fill="#000000"> </text>
</g>
<!-- n18121084&#45;&gt;n18121020 -->
<g id="edge21" class="edge">
<title>n18121084:m0&#45;&gt;n18121020</title>
<path fill="none" stroke="#000000" d="M491.5,-106.5C491.5,-97.8457 491.5,-88.6021 491.5,-79.7322"/>
<polygon fill="#000000" stroke="#000000" points="495.0001,-79.5489 491.5,-69.5489 488.0001,-79.5489 495.0001,-79.5489"/>
</g>
<!-- n18117964 -->
<g id="node24" class="node">
<title>n18117964</title>
<polygon fill="none" stroke="#000000" points="317.5,-567.5 317.5,-613.5 391.5,-613.5 391.5,-567.5 317.5,-567.5"/>
<text text-anchor="middle" x="354.5" y="-598.3" font-family="Times New Roman" font-size="14.00" fill="#000000">RetStmt</text>
<polyline fill="none" stroke="#000000" points="317.5,-590.5 391.5,-590.5 "/>
<text text-anchor="middle" x="354.5" y="-575.3" font-family="Times New Roman" font-size="14.00" fill="#000000"> </text>
</g>
<!-- n18121148&#45;&gt;n18117964 -->
<g id="edge23" class="edge">
<title>n18121148:m0&#45;&gt;n18117964</title>
<path fill="none" stroke="#000000" d="M352.5,-650.5C352.5,-641.8306 352.7111,-632.4606 352.9962,-623.7604"/>
<polygon fill="#000000" stroke="#000000" points="356.5009,-623.6946 353.3714,-613.5725 349.5057,-623.4369 356.5009,-623.6946"/>
</g>
<!-- n18121244 -->
<g id="node25" class="node">
<title>n18121244</title>
<polygon fill="none" stroke="#000000" points="406.5,-473 406.5,-519 460.5,-519 460.5,-473 406.5,-473"/>
<text text-anchor="middle" x="433.5" y="-503.8" font-family="Times New Roman" font-size="14.00" fill="#000000">Expr</text>
<polyline fill="none" stroke="#000000" points="406.5,-496 460.5,-496 "/>
<text text-anchor="middle" x="433.5" y="-480.8" font-family="Times New Roman" font-size="14.00" fill="#000000"> </text>
</g>
<!-- n18117964&#45;&gt;n18121244 -->
<g id="edge24" class="edge">
<title>n18117964:m0&#45;&gt;n18121244</title>
<path fill="none" stroke="#000000" d="M391.5,-578.5C414.6364,-578.5 425.0332,-552.4135 429.7021,-529.5782"/>
<polygon fill="#000000" stroke="#000000" points="433.2034,-529.8725 431.4694,-519.4205 426.307,-528.6725 433.2034,-529.8725"/>
</g>
<!-- n18121276 -->
<g id="node26" class="node">
<title>n18121276</title>
<polygon fill="none" stroke="#000000" points="425,-378.5 425,-424.5 506,-424.5 506,-378.5 425,-378.5"/>
<text text-anchor="middle" x="465.5" y="-409.3" font-family="Times New Roman" font-size="14.00" fill="#000000">PrimExpr</text>
<polyline fill="none" stroke="#000000" points="425,-401.5 506,-401.5 "/>
<text text-anchor="middle" x="465.5" y="-386.3" font-family="Times New Roman" font-size="14.00" fill="#000000">0</text>
</g>
<!-- n18121244&#45;&gt;n18121276 -->
<g id="edge25" class="edge">
<title>n18121244:m0&#45;&gt;n18121276</title>
<path fill="none" stroke="#000000" d="M433.5,-473C433.5,-459.3716 438.4034,-445.4568 444.3714,-433.568"/>
<polygon fill="#000000" stroke="#000000" points="447.5953,-434.9668 449.3125,-424.512 441.4504,-431.614 447.5953,-434.9668"/>
</g>
</g>
</svg>
